<?xml version="1.0" encoding="UTF-8" standalone="no"?>
<!-- Created with Inkscape (http://www.inkscape.org/) -->

<svg
   version="1.1"
   id="svg1"
   width="1024"
   height="1024"
   viewBox="0 0 1024 1024"
   xmlns="http://www.w3.org/2000/svg"
   xmlns:svg="http://www.w3.org/2000/svg">
  <defs
     id="defs1" />
  <g
     id="g1">
    <g
       id="g101"
       transform="translate(-15.306759,-5.8872154)">
      <path
         style="fill:#000000"
         d="m 632.82948,422.12207 c -32.38129,-34.6157 -37.66921,-67.31093 -15.36221,-94.98455 7.3883,-9.16577 14.89993,-15.28589 35.62517,-29.02566 27.54749,-18.26257 38.33991,-29.82902 42.2965,-45.32998 1.60165,-6.27484 1.53923,-13.93264 -0.15097,-18.52161 -1.40146,-3.80505 5.42801,3.60903 11.52678,12.51346 9.58319,13.99184 13.55821,25.88933 13.35971,39.98654 -0.19623,13.93587 -5.50933,25.48054 -16.63311,36.14159 -2.84981,2.73126 -13.02199,10.19217 -22.60484,16.57982 -25.22605,16.81491 -35.26845,27.61067 -41.89424,45.03704 -2.25868,5.94049 -2.56168,8.22685 -2.55003,19.24155 0.0105,9.94247 0.43724,13.77877 2.08557,18.75 1.13979,3.4375 1.72113,6.25 1.29187,6.25 -0.42927,0 -3.57486,-2.98719 -6.9902,-6.6382 z"
         id="path77" />
      <path
         style="fill:#000000"
         d="m 668.31839,427.77707 c -9.91599,-19.56827 -6.03424,-39.44031 11.06459,-56.64346 4.73666,-4.76555 13.021,-11.03899 25.00517,-18.9355 20.4874,-13.49939 27.51492,-18.89048 32.30134,-24.77962 4.15919,-5.11741 8.09754,-13.26698 8.11062,-16.78322 0.005,-1.44375 0.29601,-4.05618 0.64585,-5.8054 l 0.63608,-3.1804 3.20782,4.51186 c 14.07466,19.79631 13.61161,42.43474 -1.19883,58.6108 -5.86584,6.4067 -13.26533,10.95121 -31.58598,19.39903 -18.11662,8.35373 -24.16088,11.93786 -30.7814,18.25277 -7.0131,6.68937 -11.66444,15.65748 -12.5588,24.21429 -0.35194,3.36713 -1.0182,6.12205 -1.48058,6.12205 -0.46238,0 -1.97703,-2.24244 -3.36588,-4.9832 z"
         id="path76" />
      <path
         style="fill:#000000"
         d="m 615.80988,526.68251 c -18.78479,-2.38177 -41.92889,-9.75377 -62.5,-19.9079 -14.37363,-7.09498 -33.59622,-18.6689 -34.21072,-20.59827 -0.21955,-0.68931 3.76073,-1.52358 10.93274,-2.29151 16.20774,-1.73544 31.83832,-5.11047 60.27798,-13.01552 44.6067,-12.39881 68.89561,-17.02598 100.77618,-19.19838 41.14239,-2.80353 83.26149,2.8283 116.72382,15.60737 12.46223,4.75926 26,11.20118 26,12.37205 0,0.56061 -1.6875,1.27508 -3.75,1.58771 -22.12477,3.35361 -41.14416,8.23969 -66.75,17.14807 -61.76996,21.49003 -72.71797,24.68548 -95.28438,27.81114 -12.08323,1.67365 -40.74226,1.93997 -52.21562,0.48524 z"
         id="path75" />
      <path
         style="fill:#000000"
         d="m 654.30988,685.72054 c -44.88428,-3.76415 -87.70027,-23.81359 -119.71317,-56.05808 -32.1348,-32.36727 -51.00227,-72.18835 -57.20917,-120.74388 -1.64342,-12.8562 -2.15897,-37.15826 -0.78829,-37.15826 0.43416,0 3.92166,2.83751 7.75,6.30558 22.96812,20.80664 47.79775,37.50778 73.87529,49.6907 77.59742,36.252 155.24533,37.05063 232.97637,2.39622 20.49764,-9.13835 45.04676,-23.71534 62.37491,-37.03751 4.54626,-3.49524 8.70876,-6.35499 9.25,-6.35499 1.43897,0 1.20315,11.23789 -0.50779,24.19878 -10.39391,78.73697 -60.9567,141.72772 -133.00815,165.70057 -15.5895,5.18691 -29.83944,8.01681 -45.97997,9.13116 -14.54103,1.00392 -16.26076,0.99975 -29.02003,-0.0703 z"
         id="path72" />
    </g>
  </g>
</svg>
